<svg width="20" height="20" viewBox="0 0 20 20" fill="none" xmlns="http://www.w3.org/2000/svg">
<path d="M15.205 9.92682C13.8726 10.9542 12.1036 11.5847 10.1542 11.5847C8.1757 11.5847 6.37765 10.9337 5.03925 9.87593C1.92617 10.5879 0 13.0187 0 15.9227V17.4025C0 20.8658 20 20.8658 20 17.4025V15.9227C19.9999 13.0952 18.1728 10.705 15.205 9.92682ZM10.1542 10.532C13.6048 10.532 16.4097 8.1774 16.4097 5.26852C16.4097 2.35964 13.6107 0 10.1542 0C6.70927 0 3.90458 2.3597 3.90458 5.26856C3.90458 8.17753 6.70927 10.532 10.1542 10.532Z" fill="white"/>
</svg>
