<svg width="167" height="55" viewBox="0 0 167 55" fill="none" xmlns="http://www.w3.org/2000/svg">
<g filter="url(#filter0_d_1_7)">
<path d="M51.625 22.3125V24.5938C48.7708 25.1146 46.9583 25.5625 46.1875 25.9375C45.8125 26.125 45.5312 26.4792 45.3438 27C45.1562 27.5208 45.0625 29.125 45.0625 31.8125C45.0625 36.1042 45.125 39.8958 45.25 43.1875C43.8333 43.4375 42.2812 43.7396 40.5938 44.0938C36.1771 45.0521 32.9896 45.6562 31.0312 45.9062C29.0938 46.1562 27.0104 46.2812 24.7812 46.2812C19.5938 46.2812 15.4896 45.6354 12.4688 44.3438C8.69792 42.6979 5.8125 40.1562 3.8125 36.7188C1.8125 33.2812 0.8125 29.1875 0.8125 24.4375C0.8125 16 3.92708 9.5 10.1562 4.9375C14.6146 1.6875 20.5 0.0625 27.8125 0.0625C32.7083 0.0625 38.2292 0.770833 44.375 2.1875C44.3333 3.41667 44.3125 4.40625 44.3125 5.15625C44.3125 7.59375 44.4167 11.0521 44.625 15.5312H41.4375C40.5625 12.0729 39.6771 9.67708 38.7812 8.34375C37.9062 6.98958 36.5312 5.91667 34.6562 5.125C32.8021 4.3125 30.5312 3.90625 27.8438 3.90625C24.3229 3.90625 21.375 4.625 19 6.0625C16.6458 7.5 14.8125 9.72917 13.5 12.75C12.2083 15.75 11.5625 19.2083 11.5625 23.125C11.5625 29.375 13.0312 34.1042 15.9688 37.3125C18.9271 40.5208 22.8125 42.125 27.625 42.125C30.0417 42.125 32.6562 41.5833 35.4688 40.5V30.875C35.4688 28.7708 35.3646 27.4167 35.1562 26.8125C35.0104 26.4375 34.7188 26.1354 34.2812 25.9062C33.8646 25.6771 32.5312 25.3333 30.2812 24.875C30.0312 24.8125 29.6458 24.7188 29.125 24.5938V22.3125C33.9167 22.5417 37.5208 22.6562 39.9375 22.6562C41.7083 22.6562 45.6042 22.5417 51.625 22.3125ZM52.875 3.3125V1C55.7292 1.22917 58.3854 1.34375 60.8438 1.34375C63.3229 1.34375 66.2396 1.22917 69.5938 1C72.1354 4.41667 79.7812 13.8646 92.5312 29.3438L92.4062 12.3438C92.3021 8.19792 92.1354 5.89583 91.9062 5.4375C91.6979 4.95833 91.3438 4.59375 90.8438 4.34375C90.3438 4.07292 88.5833 3.72917 85.5625 3.3125V1C88.9167 1.22917 91.8438 1.34375 94.3438 1.34375C96.7604 1.34375 99.8438 1.22917 103.594 1V3.3125C102.948 3.4375 102.469 3.52083 102.156 3.5625C99.6979 3.9375 98.2292 4.35417 97.75 4.8125C97.2708 5.25 96.9896 6.16667 96.9062 7.5625C96.6979 10.4792 96.5938 16.4792 96.5938 25.5625C96.5938 31.3958 96.7083 38.0625 96.9375 45.5625C95.9583 45.8542 94.9896 46.1979 94.0312 46.5938L82.1875 31.6562L64.125 9.6875L64.2188 24.5312L64.4688 38.9688C64.5312 40.0521 64.6354 40.7396 64.7812 41.0312C64.9271 41.3021 65.1354 41.5208 65.4062 41.6875C65.8646 41.9583 67.3438 42.3229 69.8438 42.7812C70.1354 42.8229 70.5729 42.9062 71.1562 43.0312V45.3438C67.5729 45.1146 64.6979 45 62.5312 45C60.6771 45 57.5312 45.1146 53.0938 45.3438V43.0312C53.7396 42.9062 54.2292 42.8125 54.5625 42.75C56.9583 42.375 58.3854 42.0104 58.8438 41.6562C59.1354 41.4271 59.3438 41.1042 59.4688 40.6875C59.5938 40.25 59.7292 37.1458 59.875 31.375C60.1042 23.0208 60.2188 15.8542 60.2188 9.875C60.2188 7.875 60.1042 6.59375 59.875 6.03125C59.6667 5.46875 59.2812 5.03125 58.7188 4.71875C58.1562 4.40625 56.7292 4.04167 54.4375 3.625C54.0833 3.5625 53.5625 3.45833 52.875 3.3125ZM104.75 3.3125V1C109.604 1.22917 113.615 1.34375 116.781 1.34375C119.198 1.34375 122.542 1.28125 126.812 1.15625C129.917 1.05208 132.51 1 134.594 1C138.51 1 141.615 1.5 143.906 2.5C147.073 3.875 149.552 5.98958 151.344 8.84375C153.156 11.6979 154.062 15.3958 154.062 19.9375C154.062 24.9792 152.885 29.4688 150.531 33.4062C148.177 37.3229 144.865 40.3854 140.594 42.5938C137.031 44.4479 132.708 45.375 127.625 45.375C127.146 45.375 125.208 45.3021 121.812 45.1562C118.417 45.0312 116.51 44.9688 116.094 44.9688C114.635 44.9688 110.854 45.0938 104.75 45.3438V43.0312L106.062 42.7812C108.792 42.3021 110.385 41.8542 110.844 41.4375C111.323 41.0208 111.604 40.4062 111.688 39.5938C111.792 38.3854 111.844 32.0625 111.844 20.625C111.844 12.2292 111.76 7.5 111.594 6.4375C111.49 5.70833 111.229 5.17708 110.812 4.84375C110.396 4.51042 108.812 4.09375 106.062 3.59375L104.75 3.3125ZM121.531 41.1875C124.052 41.6042 126.167 41.8125 127.875 41.8125C132.667 41.8125 136.281 40.3958 138.719 37.5625C141.823 33.9375 143.375 28.6771 143.375 21.7812C143.375 15.8646 142 11.375 139.25 8.3125C137.021 5.8125 133.531 4.5625 128.781 4.5625C126.781 4.5625 124.365 4.76042 121.531 5.15625C121.323 8.40625 121.219 14.4375 121.219 23.25C121.219 28.3125 121.323 34.2917 121.531 41.1875Z" fill="#FFE452" fill-opacity="0.81" shape-rendering="crispEdges"/>
</g>
<defs>
<filter id="filter0_d_1_7" x="0.8125" y="0.0625" width="165.25" height="54.5312" filterUnits="userSpaceOnUse" color-interpolation-filters="sRGB">
<feFlood flood-opacity="0" result="BackgroundImageFix"/>
<feColorMatrix in="SourceAlpha" type="matrix" values="0 0 0 0 0 0 0 0 0 0 0 0 0 0 0 0 0 0 127 0" result="hardAlpha"/>
<feOffset dx="8" dy="4"/>
<feGaussianBlur stdDeviation="2"/>
<feComposite in2="hardAlpha" operator="out"/>
<feColorMatrix type="matrix" values="0 0 0 0 1 0 0 0 0 0.89085 0 0 0 0 0.304167 0 0 0 0.17 0"/>
<feBlend mode="normal" in2="BackgroundImageFix" result="effect1_dropShadow_1_7"/>
<feBlend mode="normal" in="SourceGraphic" in2="effect1_dropShadow_1_7" result="shape"/>
</filter>
</defs>
</svg>
